<mxfile host="65bd71144e">
    <diagram id="EALDzC-h3cISUXUWquqr" name="페이지-1">
        <mxGraphModel dx="937" dy="642" grid="1" gridSize="10" guides="1" tooltips="1" connect="1" arrows="1" fold="1" page="1" pageScale="1" pageWidth="827" pageHeight="1169" math="0" shadow="0">
            <root>
                <mxCell id="0"/>
                <mxCell id="1" parent="0"/>
                <mxCell id="25" value="" style="rounded=0;whiteSpace=wrap;html=1;" parent="1" vertex="1">
                    <mxGeometry x="40" y="55" width="710" height="380" as="geometry"/>
                </mxCell>
                <mxCell id="9" value="collection_table" style="aspect=fixed;perimeter=ellipsePerimeter;html=1;align=center;shadow=0;dashed=0;spacingTop=3;image;image=img/lib/active_directory/database.svg;" parent="1" vertex="1">
                    <mxGeometry x="640" y="139" width="63.52" height="47" as="geometry"/>
                </mxCell>
                <mxCell id="13" value="3. 파싱한 Slug를 통하여&lt;br&gt;Table에 있는 Collection ID 확인" style="edgeStyle=none;html=1;entryX=0;entryY=0.5;entryDx=0;entryDy=0;" parent="1" source="10" target="9" edge="1">
                    <mxGeometry x="0.0022" relative="1" as="geometry">
                        <mxPoint as="offset"/>
                    </mxGeometry>
                </mxCell>
                <mxCell id="16" value="4. Slug로 Collection를 확인할 수 없는 경우,&lt;br&gt;Reservoir에서 Slug를 사용하여 Collection 검색" style="edgeStyle=none;html=1;entryX=1;entryY=0.5;entryDx=0;entryDy=0;rounded=1;" parent="1" source="10" target="15" edge="1">
                    <mxGeometry relative="1" as="geometry">
                        <Array as="points">
                            <mxPoint x="391" y="350"/>
                        </Array>
                    </mxGeometry>
                </mxCell>
                <mxCell id="22" value="" style="edgeStyle=none;rounded=1;html=1;exitX=1;exitY=1;exitDx=0;exitDy=0;" parent="1" source="10" edge="1">
                    <mxGeometry relative="1" as="geometry">
                        <mxPoint x="650" y="195" as="targetPoint"/>
                        <Array as="points">
                            <mxPoint x="580" y="220"/>
                        </Array>
                    </mxGeometry>
                </mxCell>
                <mxCell id="10" value="Blago Server" style="aspect=fixed;perimeter=ellipsePerimeter;html=1;align=center;shadow=0;dashed=0;spacingTop=3;image;image=img/lib/active_directory/generic_server.svg;" parent="1" vertex="1">
                    <mxGeometry x="370" y="130" width="42.56" height="76" as="geometry"/>
                </mxCell>
                <mxCell id="14" value="1. 데이터 스크래핑" style="edgeStyle=none;html=1;entryX=0.023;entryY=0.39;entryDx=0;entryDy=0;entryPerimeter=0;" parent="1" source="11" target="10" edge="1">
                    <mxGeometry relative="1" as="geometry"/>
                </mxCell>
                <mxCell id="11" value="Opensea" style="aspect=fixed;perimeter=ellipsePerimeter;html=1;align=center;shadow=0;dashed=0;spacingTop=3;image;image=img/lib/active_directory/sub_site.svg;" parent="1" vertex="1">
                    <mxGeometry x="70" y="130" width="65.12" height="56" as="geometry"/>
                </mxCell>
                <mxCell id="23" value="5. 부족한 Collection ID 데이터 보충" style="edgeStyle=none;rounded=1;html=1;entryX=0.055;entryY=0.996;entryDx=0;entryDy=0;entryPerimeter=0;" parent="1" source="15" target="10" edge="1">
                    <mxGeometry relative="1" as="geometry"/>
                </mxCell>
                <mxCell id="15" value="Reservoir" style="aspect=fixed;perimeter=ellipsePerimeter;html=1;align=center;shadow=0;dashed=0;spacingTop=3;image;image=img/lib/active_directory/sub_site.svg;" parent="1" vertex="1">
                    <mxGeometry x="70" y="320" width="65.12" height="56" as="geometry"/>
                </mxCell>
                <mxCell id="21" value="2. 데이터 파싱" style="text;html=1;strokeColor=none;fillColor=none;align=center;verticalAlign=middle;whiteSpace=wrap;rounded=0;" parent="1" vertex="1">
                    <mxGeometry x="336.28" y="100" width="110" height="30" as="geometry"/>
                </mxCell>
                <mxCell id="24" value="&lt;span style=&quot;font-size: 11px;&quot;&gt;6. 데이터 update or insert&lt;br&gt;&lt;/span&gt;---------------------------------------------------------------&lt;br style=&quot;font-size: 11px;&quot;&gt;&lt;span style=&quot;font-size: 11px;&quot;&gt;6-1. 기존 Collection ID는 존재하는데 Slug가 없는 경우, Update&lt;br&gt;6-2. Collection ID를 찾을 수 없는 경우, Insert&lt;br&gt;&lt;/span&gt;" style="text;html=1;strokeColor=none;fillColor=none;align=center;verticalAlign=middle;whiteSpace=wrap;rounded=0;" parent="1" vertex="1">
                    <mxGeometry x="430" y="220" width="300" height="80" as="geometry"/>
                </mxCell>
            </root>
        </mxGraphModel>
    </diagram>
</mxfile>